<svg version="1.2" xmlns="http://www.w3.org/2000/svg" viewBox="0 0 24 24" width="24" height="24">
	<title>logo-instagram-svg</title>
	<style>
		.s0 { fill: #ffffff } 
	</style>
	<path id="Layer" fill-rule="evenodd" class="s0" d="m16.9 0.1c4.4 0.2 6.8 2.6 7 7 0.1 1.2 0.1 1.6 0.1 4.9 0 3.3 0 3.7-0.1 4.9-0.2 4.4-2.6 6.8-7 7-1.2 0.1-1.6 0.1-4.9 0.1-3.3 0-3.7 0-4.9-0.1-4.4-0.2-6.8-2.6-7-7-0.1-1.2-0.1-1.6-0.1-4.9 0-3.3 0-3.7 0.1-4.9 0.2-4.4 2.6-6.8 7-7 1.2-0.1 1.6-0.1 4.9-0.1 3.3 0 3.7 0 4.9 0.1zm-9.7 2.1c-3.3 0.2-4.8 1.7-5 5 0 1.2 0 1.6 0 4.8 0 3.2 0 3.6 0 4.8 0.2 3.3 1.7 4.8 5 5 1.2 0 1.6 0 4.8 0 3.2 0 3.6 0 4.9 0 3.2-0.2 4.7-1.7 4.9-4.9 0-1.3 0-1.7 0-4.9 0-3.2 0-3.6 0-4.8-0.2-3.3-1.7-4.8-4.9-5-1.3 0-1.7 0-4.9 0-3.2 0-3.6 0-4.8 0zm11 9.8c0 3.4-2.8 6.2-6.2 6.2-3.4 0-6.2-2.8-6.2-6.2 0-3.4 2.8-6.2 6.2-6.2 3.4 0 6.2 2.8 6.2 6.2zm-2.2 0c0-2.2-1.8-4-4-4-2.2 0-4 1.8-4 4 0 2.2 1.8 4 4 4 2.2 0 4-1.8 4-4zm3.8-6.4c0 0.8-0.6 1.4-1.4 1.4-0.8 0-1.4-0.6-1.4-1.4 0-0.8 0.6-1.4 1.4-1.4 0.8 0 1.4 0.6 1.4 1.4z"/>
</svg>