<svg version="1.2" xmlns="http://www.w3.org/2000/svg" viewBox="0 0 261 261" width="261" height="261">
	<title>image</title>
	<defs>
		<clipPath clipPathUnits="userSpaceOnUse" id="cp1">
			<path d="m0 0h261v261h-261z"/>
		</clipPath>
	</defs>
	<style>
		.s0 { fill: #040929 } 
		.s1 { fill: #050b34 } 
	</style>
	<g id="Clip-Path" clip-path="url(#cp1)">
		<g id="Layer">
			<path id="Layer" class="s0" d="m248.1 227.9c0.1 9.2-3.9 18.1-10.8 24.3-6.9 6.1-16.1 9.1-25.4 8-16.5-2.5-28.7-16.9-28.3-33.7v-192.6c-0.4-16.8 11.8-31.3 28.4-33.7 9.2-1.1 18.4 1.9 25.3 8 7 6.2 10.9 15.1 10.8 24.3z"/>
			<path id="Layer" fill-rule="evenodd" class="s1" d="m12.9 228.2c0 17.8 14.4 32.2 32.2 32.2 17.8 0 32.3-14.4 32.3-32.2 0-17.8-14.5-32.3-32.3-32.3-17.8 0-32.2 14.5-32.2 32.3zm117.1-130c-17.9 0.9-31.8 16-31.4 33.9v86.6c0 23.5 10.4 37.8 25.5 40.9 9.6 1.9 19.4-0.6 26.9-6.7 7.6-6.2 11.9-15.4 11.9-25.1v-97.2c0-8.7-3.5-17-9.7-23.1-6.1-6.1-14.5-9.5-23.2-9.3z"/>
		</g>
	</g>
</svg>