<svg version="1.2" xmlns="http://www.w3.org/2000/svg" viewBox="0 0 175 251" width="175" height="251">
	<title>image</title>
	<style>
		.s0 { fill: #050b34 } 
	</style>
	<path id="Layer" fill-rule="evenodd" class="s0" d="m125.8 0c26.7 0 48.3 21.6 48.3 48.2 0 15.7-7.5 29.7-19.2 38.5 11.7 8.8 19.2 22.8 19.2 38.5 0 26.6-21.6 48.2-48.3 48.2-10.7 0-20.7-3.5-28.7-9.5v38.2c0 26.7-21.6 48.3-48.2 48.3-26.6 0-48.2-21.6-48.2-48.3 0-15.7 7.5-29.6 19.1-38.4-11.6-8.8-19.1-22.8-19.1-38.5 0-15.7 7.5-29.7 19.1-38.5-11.6-8.8-19.1-22.8-19.1-38.5 0-26.6 21.6-48.2 48.2-48.2zm-48.2 19.5h-28.8c-15.8 0-28.7 12.9-28.7 28.7 0 15.9 12.9 28.8 28.7 28.8h28.8zm19.4 0v57.4h28.8c15.9 0 28.7-12.8 28.7-28.7 0-15.9-12.8-28.7-28.7-28.7zm-19.5 134.4v-57.5h-28.7c-15.9 0-28.8 12.9-28.8 28.8 0 15.8 12.8 28.6 28.7 28.7zm-28.8 77c15.9 0 28.8-12.9 28.8-28.8v-28.7h-28.9c-15.8 0-28.6 12.9-28.6 28.7 0 15.9 12.8 28.8 28.7 28.8zm48.2-105.7c0.1 15.9 12.9 28.7 28.8 28.7 15.8 0 28.7-12.9 28.7-28.7 0-15.9-12.9-28.8-28.7-28.8-15.9 0-28.7 12.9-28.8 28.7z"/>
</svg>