<svg version="1.2" xmlns="http://www.w3.org/2000/svg" viewBox="0 0 263 298" width="263" height="298">
	<title>image</title>
	<style>
		.s0 { fill: #050b34 } 
		.s1 { fill: #040929 } 
		.s2 { fill: #ebebeb } 
		.s3 { fill: #ffffff } 
	</style>
	<path id="Layer" class="s0" d="m24.1 267.5l-23.8-267.5h262l-23.8 267.5-107.4 29.7z"/>
	<path id="Layer" class="s1" d="m131.3 274.5l86.7-24.1 20.4-228.5h-107.1z"/>
	<path id="Layer" class="s2" d="m131.3 121.1h-43.4l-3-33.6h46.4v-32.8h-82.3l0.8 8.8 8.1 90.4h73.4zm0 85.2h-0.2l-36.5-9.8-2.3-26.2h-33l4.6 51.5 67.2 18.7 0.2-0.1z"/>
	<path id="Layer" class="s3" d="m131.2 121.1v32.8h40.4l-3.8 42.5-36.6 9.9v34.2l67.2-18.7 0.5-5.5 7.7-86.4 0.8-8.8h-8.8zm0-66.4v32.8h79.3l0.6-7.4 1.5-16.6 0.8-8.8z"/>
</svg>