<svg version="1.2" xmlns="http://www.w3.org/2000/svg" viewBox="0 0 602 541" width="589" height="529">
	<title>image</title>
	<style>
		.s0 { opacity: .1;fill: #000000 } 
	</style>
	<path id="Layer" fill-rule="evenodd" class="s0" d="m150.9 167.9v-42.4c0-32.8 29.5-59.4 65.8-59.4h169.1c36.3 0 65.8 26.6 65.8 59.4v42.4h33c15 0 29.3 5.4 39.9 14.9l60.9 55c10.6 9.6 16.6 22.5 16.6 36v97.6h-150.4v-33.9c0-18.8-16.8-34-37.6-34-20.8 0-37.6 15.2-37.6 34v33.9h-150.3v-33.9c0-18.8-16.8-34-37.6-34-20.8 0-37.6 15.2-37.6 34v33.9h-150.4v-97.6c0-13.5 6-26.4 16.6-36l60.9-55c10.6-9.5 24.9-14.9 39.9-14.9zm56.4-42.4v42.4h187.9v-42.4c0-4.7-4.2-8.5-9.4-8.5h-169.1c-5.2 0-9.4 3.8-9.4 8.5zm-206.8 347.7v-67.9h150.4c0 18.8 16.8 33.9 37.6 33.9 20.8 0 37.6-15.1 37.6-33.9h150.3c0 18.8 16.8 33.9 37.6 33.9 20.8 0 37.6-15.1 37.6-33.9h150.4v67.9c0 37.4-33.7 67.8-75.2 67.8h-451.1c-41.5 0-75.2-30.4-75.2-67.8z"/>
</svg>