<svg version="1.2" xmlns="http://www.w3.org/2000/svg" viewBox="0 0 244 243" width="244" height="243">
	<title>image</title>
	<style>
		.s0 { fill: #050b34 } 
	</style>
	<path id="Layer" class="s0" d="m82.6 69.2c-6.1 0-10.3 0.6-12.5 1.2v39.5c2.6 0.6 5.8 0.8 10.1 0.8 16.1 0 26-8.1 26-21.8 0-12.3-8.5-19.7-23.6-19.7z"/>
	<path id="Layer" fill-rule="evenodd" class="s0" d="m243 14.8v213.1c0 8.2-6.6 14.8-14.8 14.8h-213.1c-8.2 0-14.8-6.6-14.8-14.8v-213.1c0-8.2 6.6-14.8 14.8-14.8h213.1c8.2 0 14.8 6.6 14.8 14.8zm-106.8 73.3c0-13.1-5.7-24.2-14.3-31-8.9-7.1-22.2-10.7-40.9-10.7-18.5 0-31.5 1.2-40.9 2.8v132h30v-47.9c2.8 0.4 6.3 0.6 10.3 0.6 17.9 0 33.2-4.3 43.5-14.1 7.9-7.5 12.3-18.6 12.3-31.7zm74.9 63.7c-0.2-14.3-7.9-23.6-26.4-30-11.9-4.2-15.6-6.5-15.6-11.1 0-5 4.1-7.9 11.4-7.9 8.4 0 16.7 3.1 21.1 5.5l5.3-20.8c-5.9-3-16-5.6-27.3-5.6-24.1 0-39.5 13.7-39.5 31.8-0.2 11.5 7.5 22.4 27.6 29.1 11.3 3.8 14.2 6.2 14.2 11.1 0 5-3.7 8.2-12.9 8.2-8.9 0-20.4-4-26-7.3l-5.3 21.6c7.3 4 18.6 6.7 31.3 6.7 27.8 0 42.1-13.3 42.1-31.3z"/>
</svg>